:version 1.10
:name ASF
:units
  mass 1
  length 1
  angle deg
:documentation
  ASF file generated by Kaydara
:root
  axis xyz
  order  tx ty tz rx ry rz
  position 0 0 0
  orientation 0 0 0
:bonedata
  begin
    id 1
    name lfemurDummy
    direction 0.61522 -0.761478 0.204097
    length 5.68318
    axis 0 -0 0 xyz
  end
  begin
    id 2
    name lfemur
    direction 0.34202 -0.939693 -5.84747e-008
    length 16.9147
    axis 0 -0 20 xyz
    dof rx ry rz
    limits( -inf , inf )
( -inf , inf )
( -inf , inf )

  end
  begin
    id 3
    name ltibia
    direction 0.34202 -0.939693 1.20839e-009
    length 18.0532
    axis 0 -0 20 xyz
    dof rz ry rx
    limits( -inf , inf )
( -inf , inf )
( -inf , inf )

  end
  begin
    id 4
    name lfoot
    direction 0.0841971 -0.23133 0.969225
    length 5.23822
    axis -90 7.62852e-016 20 xyz
    dof ry rx rz
    limits( -inf , inf )
( -inf , inf )
( -inf , inf )

  end
  begin
    id 5
    name ltoes
    direction 0 0 0
    length 0
    axis 0 0 0 xyz
    dof rz ry rx
    limits( -inf , inf )
( -inf , inf )
( -inf , inf )

  end
  begin
    id 6
    name rfemurDummy
    direction -0.625247 -0.75382 0.202044
    length 5.74091
    axis 0 -0 0 xyz
  end
  begin
    id 7
    name rfemur
    direction -0.34202 -0.939693 -1.47013e-008
    length 16.4922
    axis 0 -0 -20 xyz
    dof rx ry rz
    limits( -inf , inf )
( -inf , inf )
( -inf , inf )

  end
  begin
    id 8
    name rtibia
    direction -0.34202 -0.939693 -7.74345e-010
    length 18.2421
    axis 0 -0 -20 xyz
    dof rz ry rx
    limits( -inf , inf )
( -inf , inf )
( -inf , inf )

  end
  begin
    id 9
    name rfoot
    direction -0.124331 -0.341598 0.931586
    length 5.45787
    axis -90 -7.62852e-016 -20 xyz
    dof ry rx rz
    limits( -inf , inf )
( -inf , inf )
( -inf , inf )

  end
  begin
    id 10
    name rtoes
    direction 0 0 0
    length 0
    axis 0 0 0 xyz
    dof rz ry rx
    limits( -inf , inf )
( -inf , inf )
( -inf , inf )

  end
  begin
    id 11
    name lowerbackDummy
    direction 0 0 0
    length 0
    axis 0 -0 0 xyz
  end
  begin
    id 12
    name lowerback
    direction -0.0218484 0.994884 -0.0986304
    length 4.45607
    axis 0 -0 0 xyz
    dof rx ry rz
    limits( -inf , inf )
( -inf , inf )
( -inf , inf )

  end
  begin
    id 13
    name upperback
    direction -0.00973057 0.999717 -0.0217111
    length 4.47449
    axis 0 -0 0 xyz
    dof rx ry rz
    limits( -inf , inf )
( -inf , inf )
( -inf , inf )

  end
  begin
    id 14
    name thorax
    direction -0.000928171 0.999699 0.0245198
    length 4.50973
    axis 0 -0 0 xyz
    dof rx ry rz
    limits( -inf , inf )
( -inf , inf )
( -inf , inf )

  end
  begin
    id 15
    name rclavicle
    direction -0.9009 0.425937 -0.0834055
    length 7.28587
    axis 0 -0 0 xyz
    dof rx ry rz
    limits( -inf , inf )
( -inf , inf )
( -inf , inf )

  end
  begin
    id 16
    name rhumerus
    direction -1 -2.23604e-007 -1.42637e-007
    length 13.5704
    axis 180 30 90 xyz
    dof rx ry rz
    limits( -inf , inf )
( -inf , inf )
( -inf , inf )

  end
  begin
    id 17
    name rradius
    direction -1 5.68281e-008 -4.4952e-007
    length 8.06782
    axis 180 30 90 xyz
    dof rz ry rx
    limits( -inf , inf )
( -inf , inf )
( -inf , inf )

  end
  begin
    id 18
    name rwrist
    direction -1 1.51393e-007 1.38143e-007
    length 4.03391
    axis -90 -90 0 xyz
    dof rz rx ry
    limits( -inf , inf )
( -inf , inf )
( -inf , inf )

  end
  begin
    id 19
    name rthumb
    direction 0 0 0
    length 0
    axis 0 0 0 xyz
    dof ry rx rz
    limits( -inf , inf )
( -inf , inf )
( -inf , inf )

  end
  begin
    id 20
    name rhand
    direction -1 -3.34077e-007 -5.59631e-007
    length 1.29744
    axis -90 -90 0 xyz
    dof ry rx rz
    limits( -inf , inf )
( -inf , inf )
( -inf , inf )

  end
  begin
    id 21
    name rfingers
    direction 0 0 0
    length 0
    axis 0 0 0 xyz
    dof rz ry rx
    limits( -inf , inf )
( -inf , inf )
( -inf , inf )

  end
  begin
    id 22
    name lclavicle
    direction 0.940017 0.332249 -0.0773232
    length 8.29589
    axis 0 -0 0 xyz
    dof rx ry rz
    limits( -inf , inf )
( -inf , inf )
( -inf , inf )

  end
  begin
    id 23
    name lhumerus
    direction 1 7.41158e-008 -1.44768e-008
    length 12.0042
    axis 180 -30 -90 xyz
    dof rx ry rz
    limits( -inf , inf )
( -inf , inf )
( -inf , inf )

  end
  begin
    id 24
    name lradius
    direction 1 -1.32972e-007 3.10821e-007
    length 8.1902
    axis 180 -30 -90 xyz
    dof rz ry rx
    limits( -inf , inf )
( -inf , inf )
( -inf , inf )

  end
  begin
    id 25
    name lwrist
    direction 1 3.08957e-007 4.01394e-007
    length 4.09509
    axis -90 90 0 xyz
    dof rz rx ry
    limits( -inf , inf )
( -inf , inf )
( -inf , inf )

  end
  begin
    id 26
    name lthumb
    direction 0 0 0
    length 0
    axis 0 0 0 xyz
    dof ry rx rz
    limits( -inf , inf )
( -inf , inf )
( -inf , inf )

  end
  begin
    id 27
    name lhand
    direction 1 -1.64125e-007 -6.99514e-007
    length 1.37229
    axis -90 90 0 xyz
    dof ry rx rz
    limits( -inf , inf )
( -inf , inf )
( -inf , inf )

  end
  begin
    id 28
    name lfingers
    direction 0 0 0
    length 0
    axis 0 0 0 xyz
    dof rz ry rx
    limits( -inf , inf )
( -inf , inf )
( -inf , inf )

  end
  begin
    id 29
    name lowerneck
    direction -0.030798 0.998024 0.0547665
    length 3.93918
    axis 0 -0 0 xyz
    dof rx ry rz
    limits( -inf , inf )
( -inf , inf )
( -inf , inf )

  end
  begin
    id 30
    name upperneck
    direction 0.0531588 0.996611 -0.0627736
    length 3.95491
    axis 0 -0 0 xyz
    dof rx ry rz
    limits( -inf , inf )
( -inf , inf )
( -inf , inf )

  end
  begin
    id 31
    name head
    direction 0 0 0
    length 0
    axis 0 0 0 xyz
    dof rx ry rz
    limits( -inf , inf )
( -inf , inf )
( -inf , inf )

  end
:hierarchy
  begin
    root lfemurDummy rfemurDummy lowerbackDummy
    lfemurDummy lfemur
    lfemur ltibia
    ltibia lfoot
    lfoot ltoes
    rfemurDummy rfemur
    rfemur rtibia
    rtibia rfoot
    rfoot rtoes
    lowerbackDummy lowerback
    lowerback upperback
    upperback thorax
    thorax rclavicle lclavicle lowerneck
    rclavicle rhumerus
    rhumerus rradius
    rradius rwrist
    rwrist rthumb rhand
    rhand rfingers
    lclavicle lhumerus
    lhumerus lradius
    lradius lwrist
    lwrist lthumb lhand
    lhand lfingers
    lowerneck upperneck
    upperneck head
  end

:SAMPLES-PER-SECOND 30
:FULLY-SPECIFIED
:DEGREES
93
root  6.438244797 35.65444346 -2.722622278 7.222000122 -65.2440033 -0.5440063477
lowerback  18.41250038 2.605799913 -4.361800194
upperback  5.198120117 2.326450109 -1.027629972
thorax  -4.837349892 1.064610004 0.8698989749
lowerneck  -6.984049797 6.511330128 -3.63496995
upperneck  -1.569059968 8.93558979 1.309110045
head  0.4430980086 4.499189854 1.203189969
lclavicle  0 -9.442270133e-015 7.951389973e-016
lhumerus  2.400690079 -19.83740044 84.01660156
lradius  2.631464797e-031 -2.354620364e-031 138.1779938
lwrist  -7.062250077e-031 -0 4.741700172
lhand  -1.496451383e-031 -27.76390076 20.11240005
lfingers  90 7.125020027 -90
lthumb  89.89689403 5.08795885 91.16245106
rclavicle  0 -9.442270133e-015 7.951389973e-016
rhumerus  -2.340189934 26.40449905 -79.39299774
rradius  -2.598416586e-031 2.391040627e-031 137.3800049
rwrist  3.531125038e-031 -0 0.4054419994
rhand  -7.920061211e-032 -33.2840004 9.303460121
rfingers  -90 -7.125020027 -90
rthumb  -92.93752616 -24.25625642 -97.11982154
rfemur  -17.85160065 7.245820045 6.306680202
rtibia  -0 0 65.98290253
rfoot  -0 -32.06119919 -10.83790016
rtoes  5.373923086 19.29304026 -105.8922705
lfemur  -36.80379868 0.03016610071 -0.472638011
ltibia  -0 0 69.3513031
lfoot  4.817061478e-032 -23.6079998 -6.186399937
ltoes  -4.250644065 -19.5611806 -102.515957
94
root  6.390266719 35.54155545 -2.737488897 8.320007324 -64.75099945 -1.080993652
lowerback  17.66880035 2.424170017 -4.0458498
upperback  4.912990093 2.206840038 -0.9758440256
thorax  -4.734089851 1.017400026 0.7909020185
lowerneck  -7.231379986 6.325180054 -3.878819942
upperneck  -1.625309944 8.711779594 1.501989961
head  0.4546850026 4.391089916 1.308480024
lclavicle  0 -9.442270133e-015 7.951389973e-016
lhumerus  2.584249973 -19.69519997 83.81420135
lradius  2.632450952e-031 -2.353517797e-031 138.2019958
lwrist  -7.062250077e-031 1.765562519e-031 4.860249996
lhand  -1.496451383e-031 -27.76390076 20.11240005
lfingers  90 7.125020027 -90
lthumb  89.89689403 5.08795885 91.16245106
rclavicle  0 -9.442270133e-015 7.951389973e-016
rhumerus  -3.751679897 26.56439972 -79.96279907
rradius  -2.586155356e-031 2.404297093e-031 137.0870056
rwrist  1.059337512e-030 -0 1.73277998
rhand  -7.920061211e-032 -33.2840004 9.303460121
rfingers  -90 -7.125020027 -90
rthumb  -92.93752616 -24.25625642 -97.11982154
rfemur  -17.36160088 7.326600075 7.111289978
rtibia  -0 0 64.77999878
rfoot  -0 -34.84609985 -11.12909985
rtoes  5.373923086 19.29304026 -105.8922705
lfemur  -36.93000031 0.4938240051 -0.1146389991
ltibia  -0 0 68.29740143
lfoot  -0 -24.89920044 -6.828320026
ltoes  -4.250644065 -19.5611806 -102.515957
95
root  6.35426664 35.46888997 -2.738488941 9.462997437 -64.37000275 -1.632003784
lowerback  16.8885994 2.298640013 -3.665780067
upperback  4.647019863 2.167000055 -0.9140840173
thorax  -4.590010166 1.006950021 0.6691899896
lowerneck  -7.42911005 6.133840084 -4.149759769
upperneck  -1.74052 8.482769966 1.639899969
head  0.4418910146 4.28042984 1.397719979
lclavicle  0 -9.442270133e-015 7.951389973e-016
lhumerus  2.846250057 -19.49740028 83.63729858
lradius  2.633190422e-031 -2.352690425e-031 138.2200012
lwrist  -3.531125038e-031 -1.765562519e-031 5.017560005
lhand  -1.496451383e-031 -27.76390076 20.11240005
lfingers  90 7.125020027 -90
lthumb  89.89689403 5.08795885 91.16245106
rclavicle  0 -9.442270133e-015 7.951389973e-016
rhumerus  -5.136410236 26.66110039 -80.43969727
rradius  -2.586196975e-031 2.404252325e-031 137.0879974
rwrist  3.531125038e-031 -3.531125038e-031 2.194289923
rhand  -7.920061211e-032 -33.2840004 9.303460121
rfingers  -90 -7.125020027 -90
rthumb  -92.93752616 -24.25625642 -97.11982154
rfemur  -17.15970039 7.709869862 7.759580135
rtibia  -0 0 63.72409821
rfoot  -0 -36.08919907 -13.42980003
rtoes  5.373923086 19.29304026 -105.8922705
lfemur  -37.33440018 1.055439949 0.1800290048
ltibia  -0 0 67.75720215
lfoot  -0 -25.96019936 -6.687039852
ltoes  -4.250644065 -19.5611806 -102.515957
96
root  6.33344425 35.43755539 -2.719933405 10.12800598 -63.98600006 -1.92300415
lowerback  16.33659935 2.178950071 -3.210639954
upperback  4.516170025 2.121340036 -0.9093769789
thorax  -4.416999817 0.9876070023 0.441388011
lowerneck  -7.659749985 5.925529957 -4.34691
upperneck  -1.909790039 8.227649689 1.667950034
head  0.4267500043 4.155469894 1.440019965
lclavicle  0 -9.442270133e-015 7.951389973e-016
lhumerus  3.270979881 -19.31279945 83.41419983
lradius  2.632163868e-031 -2.353838867e-031 138.1950073
lwrist  -7.062250077e-031 -1.765562519e-031 5.074329853
lhand  -1.496451383e-031 -27.76390076 20.11240005
lfingers  90 7.125020027 -90
lthumb  89.89689403 5.08795885 91.16245106
rclavicle  0 -9.442270133e-015 7.951389973e-016
rhumerus  -6.419449806 26.72920036 -80.82689667
rradius  -2.585777545e-031 2.404703417e-031 137.0780029
rwrist  3.531125038e-031 -0 2.111619949
rhand  -7.920061211e-032 -33.2840004 9.303460121
rfingers  -90 -7.125020027 -90
rthumb  -92.93752616 -24.25625642 -97.11982154
rfemur  -16.89159966 8.06937027 8.17125988
rtibia  -0 0 62.88479996
rfoot  -0 -36.53779984 -15.34710026
rtoes  5.373923086 19.29304026 -105.8922705
lfemur  -37.72660065 1.517719984 0.2868340015
ltibia  -0 0 67.56420135
lfoot  9.861131021e-032 -26.46419907 -7.036849976
ltoes  -4.250644065 -19.5611806 -102.515957
